<?xml version="1.0" encoding="utf-8"?>
<!-- Generator: Adobe Illustrator 16.0.4, SVG Export Plug-In . SVG Version: 6.00 Build 0)  -->
<!DOCTYPE svg PUBLIC "-//W3C//DTD SVG 1.1//EN" "http://www.w3.org/Graphics/SVG/1.1/DTD/svg11.dtd">
<svg version="1.1" id="Ebene_1" xmlns="http://www.w3.org/2000/svg" xmlns:xlink="http://www.w3.org/1999/xlink" x="0px" y="0px"
	 width="59.998px" height="60px" viewBox="414.502 107.793 59.998 60" enable-background="new 414.502 107.793 59.998 60"
	 xml:space="preserve">
<g>
	<polygon fill="#FFFFFF" points="440.734,143.143 440.734,134.829 440.27,134.829 438.477,135.945 438.477,136.658 440.037,135.768 
		440.037,143.143 	"/>
	<polygon fill="#FFFFFF" points="442.742,143.143 445.254,139.116 447.766,143.143 448.551,143.143 445.703,138.581 
		448.041,134.829 447.268,134.829 445.254,138.047 443.24,134.829 442.467,134.829 444.805,138.581 441.957,143.143 	"/>
	<path fill="#FFFFFF" d="M472.795,133.575c-0.709-6.288-3.523-11.994-8.406-17.009c-11.395-11.697-29.939-11.699-41.34,0
		c-11.396,11.701-11.396,30.738,0,42.438c5.521,5.667,12.861,8.788,20.67,8.788s15.148-3.121,20.67-8.788l-1.197-1.229
		c-5.201,5.338-12.117,8.279-19.473,8.279c-7.354,0-14.271-2.941-19.473-8.279c-10.736-11.021-10.736-28.955,0-39.978
		c10.738-11.022,28.209-11.022,38.945,0c4.492,4.611,7.26,10.046,8.004,15.779h-1.547l2.396,6.624l2.455-6.594L472.795,133.575z"/>
</g>
</svg>
