<?xml version="1.0" encoding="utf-8"?>
<!-- Generator: Adobe Illustrator 16.0.4, SVG Export Plug-In . SVG Version: 6.00 Build 0)  -->
<!DOCTYPE svg PUBLIC "-//W3C//DTD SVG 1.1//EN" "http://www.w3.org/Graphics/SVG/1.1/DTD/svg11.dtd">
<svg version="1.1" id="Ebene_1" xmlns="http://www.w3.org/2000/svg" xmlns:xlink="http://www.w3.org/1999/xlink" x="0px" y="0px"
	 width="59.998px" height="60px" viewBox="414.502 107.793 59.998 60" enable-background="new 414.502 107.793 59.998 60"
	 xml:space="preserve">
<g>
	<path fill="#FFFFFF" d="M472.795,133.575c-0.709-6.288-3.523-11.994-8.406-17.009c-11.395-11.697-29.939-11.699-41.34,0
		c-11.396,11.701-11.396,30.738,0,42.438c5.521,5.667,12.861,8.788,20.67,8.788s15.148-3.121,20.67-8.788l-1.197-1.229
		c-5.201,5.338-12.117,8.279-19.473,8.279c-7.354,0-14.271-2.941-19.473-8.279c-10.736-11.021-10.736-28.955,0-39.978
		c10.738-11.022,28.209-11.022,38.945,0c4.492,4.611,7.26,10.046,8.004,15.779h-1.547l2.396,6.624l2.455-6.594L472.795,133.575z"/>
</g>
<g>
	<path fill="#FFFFFF" d="M429.812,141.738c0.23,0.545,0.775,0.933,1.404,0.933c0.557,0,1.041-0.278,1.307-0.728
		c0.133-0.229,0.205-0.506,0.205-1.027v-6.145h0.725v6.108c0,0.702-0.131,1.149-0.373,1.5c-0.398,0.604-1.088,0.979-1.863,0.979
		c-0.918,0-1.717-0.555-2.057-1.354L429.812,141.738z"/>
	<path fill="#FFFFFF" d="M438.281,134.771l3.654,8.467h-0.727l-1.113-2.551h-4.111l-1.113,2.551h-0.727l3.654-8.467H438.281z
		 M436.275,139.998h3.52l-1.754-4.089L436.275,139.998z"/>
	<path fill="#FFFFFF" d="M449.184,138.908h-5.443v4.33h-0.727v-8.467h0.727v3.447h5.443v-3.447h0.725v8.467h-0.725V138.908z"/>
	<path fill="#FFFFFF" d="M457.424,143.238l-3.268-4.33h-1.428v4.33h-0.725v-8.467h2.891c0.773,0,1.27,0.205,1.645,0.543
		c0.412,0.375,0.664,0.92,0.664,1.524s-0.252,1.149-0.664,1.524c-0.35,0.326-0.811,0.52-1.512,0.543l3.268,4.33h-0.871V143.238z
		 M454.857,138.219c0.605,0,0.934-0.133,1.174-0.363c0.279-0.254,0.449-0.617,0.449-1.016s-0.17-0.762-0.449-1.016
		c-0.24-0.229-0.566-0.363-1.174-0.363h-2.127v2.758H454.857L454.857,138.219z"/>
</g>
</svg>
