<?xml version="1.0" encoding="utf-8"?>
<!-- Generator: Adobe Illustrator 16.0.4, SVG Export Plug-In . SVG Version: 6.00 Build 0)  -->
<!DOCTYPE svg PUBLIC "-//W3C//DTD SVG 1.1//EN" "http://www.w3.org/Graphics/SVG/1.1/DTD/svg11.dtd">
<svg version="1.1" id="Ebene_1" xmlns="http://www.w3.org/2000/svg" xmlns:xlink="http://www.w3.org/1999/xlink" x="0px" y="0px"
	 width="59.998px" height="60px" viewBox="414.502 107.793 59.998 60" enable-background="new 414.502 107.793 59.998 60"
	 xml:space="preserve">
<g>
	<path fill="#FFFFFF" d="M444.501,107.793c-16.568,0-30,13.432-30,30s13.432,30,30,30s30-13.432,30-30
		S461.069,107.793,444.501,107.793z M433.453,140.88c0,0.702-0.131,1.149-0.373,1.5c-0.398,0.604-1.088,0.979-1.863,0.979
		c-0.918,0-1.717-0.555-2.057-1.354l0.652-0.268c0.23,0.545,0.775,0.933,1.404,0.933c0.557,0,1.041-0.278,1.307-0.728
		c0.133-0.229,0.205-0.506,0.205-1.027v-6.145h0.725V140.88z M441.209,143.238l-1.113-2.551h-4.111l-1.113,2.551h-0.727l3.654-8.467
		h0.482l3.654,8.467H441.209z M449.908,143.238h-0.725v-4.33h-5.443v4.33h-0.727v-8.467h0.727v3.447h5.443v-3.447h0.725V143.238z
		 M457.424,143.236v0.002l-3.268-4.33h-1.428v4.33h-0.725v-8.467h2.891c0.773,0,1.27,0.205,1.645,0.543
		c0.412,0.375,0.664,0.92,0.664,1.524s-0.252,1.149-0.664,1.524c-0.35,0.326-0.811,0.52-1.512,0.543l3.268,4.33H457.424z"/>
	<polygon fill="#FFFFFF" points="436.275,139.998 439.795,139.998 438.041,135.909 	"/>
	<path fill="#FFFFFF" d="M456.48,136.84c0-0.398-0.17-0.762-0.449-1.016c-0.24-0.229-0.566-0.363-1.174-0.363h-2.127v2.758h2.127
		c0.605,0,0.934-0.133,1.174-0.363C456.311,137.602,456.48,137.238,456.48,136.84z"/>
</g>
</svg>
