<?xml version="1.0" encoding="utf-8"?>
<!-- Generator: Adobe Illustrator 16.0.4, SVG Export Plug-In . SVG Version: 6.00 Build 0)  -->
<!DOCTYPE svg PUBLIC "-//W3C//DTD SVG 1.1//EN" "http://www.w3.org/Graphics/SVG/1.1/DTD/svg11.dtd">
<svg version="1.1" id="Ebene_1" xmlns="http://www.w3.org/2000/svg" xmlns:xlink="http://www.w3.org/1999/xlink" x="0px" y="0px"
	 width="40px" height="40px" viewBox="412.162 284.118 40 40" enable-background="new 412.162 284.118 40 40" xml:space="preserve">
<g>
	<polygon fill="#FFFFFF" points="444.05,297.969 442.591,296.51 429.793,309.309 424.056,303.572 422.598,305.03 429.765,312.198 
		429.792,312.171 429.821,312.198 	"/>
	<g>
		<g>
			<path fill="#FFFFFF" d="M432.161,324.118c-5.342,0-10.364-2.08-14.142-5.857s-5.857-8.801-5.857-14.143s2.08-10.364,5.857-14.142
				c3.777-3.778,8.8-5.858,14.142-5.858s10.365,2.08,14.143,5.858c3.777,3.777,5.857,8.8,5.857,14.142s-2.08,10.365-5.857,14.143
				S437.503,324.118,432.161,324.118z M432.161,284.593c-5.215,0-10.118,2.031-13.806,5.719c-3.688,3.688-5.72,8.592-5.72,13.807
				s2.031,10.119,5.72,13.807c3.688,3.688,8.591,5.719,13.806,5.719c5.216,0,10.119-2.031,13.807-5.719s5.72-8.592,5.72-13.807
				s-2.032-10.118-5.72-13.807C442.281,286.624,437.377,284.593,432.161,284.593z"/>
		</g>
	</g>
</g>
</svg>
