<?xml version="1.0" encoding="utf-8"?>
<!-- Generator: Adobe Illustrator 16.0.4, SVG Export Plug-In . SVG Version: 6.00 Build 0)  -->
<!DOCTYPE svg PUBLIC "-//W3C//DTD SVG 1.1//EN" "http://www.w3.org/Graphics/SVG/1.1/DTD/svg11.dtd">
<svg version="1.1" id="Ebene_1" xmlns="http://www.w3.org/2000/svg" xmlns:xlink="http://www.w3.org/1999/xlink" x="0px" y="0px"
	 width="240px" height="202px" viewBox="0 0 240 202" enable-background="new 0 0 240 202" xml:space="preserve">
<g>
	<g>
		<path fill="#3D614E" d="M2.072,114.789v39.561H0V81.856h23.929c6.008,0,9.737,1.45,12.534,3.729
			c3.729,3.002,6.008,7.56,6.008,12.738s-2.279,9.734-6.008,12.738c-2.796,2.278-6.526,3.728-12.534,3.728h-3.108l29.937,39.561
			h-2.486l-29.936-39.561H2.072z M23.721,112.925c5.698,0,9.012-1.347,11.602-3.521c3.107-2.693,5.076-6.628,5.076-11.081
			s-1.968-8.389-5.076-11.081c-2.59-2.175-5.904-3.521-11.602-3.521H2.072v29.204H23.721z"/>
		<path fill="#3D614E" d="M80.276,107.748c13.466,0,23.203,10.667,23.203,23.819s-9.737,23.819-23.203,23.819
			s-23.203-10.667-23.203-23.819S66.81,107.748,80.276,107.748z M80.276,109.612c-12.12,0-21.131,9.838-21.131,21.955
			c0,12.116,9.012,21.955,21.131,21.955c12.119,0,21.131-9.839,21.131-21.955C101.408,119.45,92.396,109.612,80.276,109.612z"/>
		<path fill="#3D614E" d="M121.087,80.821v36.144c3.108-4.35,9.116-9.217,18.438-9.217c13.466,0,23.411,10.459,23.411,23.922
			c0,13.67-9.53,23.716-23.1,23.716c-9.634,0-16.367-5.489-18.75-9.528v8.492h-2.071V80.821H121.087z M121.087,142.233
			c2.901,6.11,9.945,11.289,18.75,11.289c12.534,0,21.028-9.424,21.028-21.852s-9.012-22.058-21.546-22.058
			c-7.873,0-14.398,4.246-18.231,10.77V142.233z"/>
		<path fill="#3D614E" d="M179.507,89.106c1.762,0,3.108,1.346,3.108,3.107c0,1.76-1.346,3.106-3.108,3.106
			c-1.761,0-3.107-1.346-3.107-3.106C176.4,90.452,177.747,89.106,179.507,89.106z M178.472,108.783h2.072v45.567h-2.072V108.783z"
			/>
		<path fill="#3D614E" d="M202.295,108.783v9.01c4.247-5.903,10.876-10.045,18.542-10.045c5.077,0,10.359,1.864,14.192,5.903
			c3.107,3.314,4.972,7.767,4.972,14.809v25.89h-2.071v-25.89c0-6.524-1.761-10.563-4.558-13.567
			c-3.107-3.314-7.872-5.281-12.534-5.281c-7.665,0-14.191,4.556-18.542,11.288v33.45h-2.072v-45.567H202.295z"/>
	</g>
	<g>
		<path fill="#3D614E" d="M39.636,187.31h-8.528v-1.282h10.351v0.832L32.3,200.493h9.608v1.282H30.433v-0.832L39.636,187.31z"/>
		<path fill="#3D614E" d="M51.268,200.38c-0.72,0.945-2.047,1.62-3.465,1.62c-1.688,0-3.105-0.81-3.848-2.115
			c-0.382-0.697-0.607-1.53-0.607-2.902v-5.467h1.283v5.264c0,1.44,0.225,2.115,0.585,2.655c0.54,0.81,1.463,1.35,2.588,1.35
			c1.395,0,2.745-0.855,3.42-2.137v-7.131h1.283v10.258h-1.238V200.38z"/>
		<path fill="#3D614E" d="M55.587,199.548c0.877,0.742,1.958,1.237,3.105,1.237c1.283,0,2.363-0.72,2.363-1.8
			c0-2.632-5.918-1.192-5.918-4.702c0-1.867,1.755-2.992,3.488-2.992c1.395,0,2.542,0.473,3.308,0.99l-0.675,1.058
			c-0.878-0.562-1.508-0.833-2.565-0.833c-1.08,0-2.272,0.562-2.272,1.755c0,2.272,5.917,1.058,5.917,4.657
			c0,1.912-1.62,3.082-3.555,3.082c-1.71,0-3.083-0.63-3.982-1.462L55.587,199.548z"/>
		<path fill="#3D614E" d="M72.98,201.774v-1.507c-0.765,1.035-2.093,1.732-3.69,1.732c-0.968,0-2.048-0.248-3.06-0.968
			c-1.35-0.945-2.183-2.542-2.183-4.386c0-1.71,0.743-3.217,1.913-4.207c0.855-0.698,2.025-1.147,3.263-1.147
			c1.485,0,2.835,0.608,3.758,1.642v-1.417h1.237v10.258H72.98z M72.935,194.576c-0.45-0.765-1.8-2.07-3.69-2.07
			c-0.855,0-1.755,0.292-2.475,0.877c-0.9,0.743-1.44,1.935-1.44,3.262c0,1.417,0.63,2.677,1.621,3.375
			c0.652,0.45,1.44,0.765,2.317,0.765c1.508,0,2.857-0.855,3.668-2.25V194.576z"/>
		<path fill="#3D614E" d="M78.694,192.911c0.743-0.967,2.048-1.62,3.465-1.62c1.71,0,3.127,0.855,3.848,2.182
			c0.72-1.035,1.98-2.182,4.028-2.182c1.688,0,3.105,0.855,3.848,2.16c0.382,0.697,0.607,1.53,0.607,2.902v5.421h-1.283v-5.264
			c0-1.44-0.225-2.114-0.585-2.654c-0.54-0.811-1.462-1.351-2.587-1.351c-1.643,0-2.903,1.147-3.533,2.385
			c0.067,0.405,0.112,0.9,0.112,1.462v5.421h-1.282v-5.264c0-1.44-0.225-2.114-0.585-2.654c-0.541-0.811-1.463-1.351-2.588-1.351
			c-1.395,0-2.745,0.855-3.42,2.137v7.131h-1.283v-10.258h1.237V192.911z"/>
		<path fill="#3D614E" d="M98.831,192.911c0.743-0.967,2.048-1.62,3.465-1.62c1.71,0,3.127,0.855,3.848,2.182
			c0.72-1.035,1.98-2.182,4.028-2.182c1.688,0,3.105,0.855,3.848,2.16c0.382,0.697,0.607,1.53,0.607,2.902v5.421h-1.283v-5.264
			c0-1.44-0.225-2.114-0.585-2.654c-0.54-0.811-1.462-1.351-2.587-1.351c-1.643,0-2.903,1.147-3.533,2.385
			c0.067,0.405,0.112,0.9,0.112,1.462v5.421h-1.282v-5.264c0-1.44-0.225-2.114-0.585-2.654c-0.54-0.811-1.462-1.351-2.587-1.351
			c-1.395,0-2.745,0.855-3.42,2.137v7.131h-1.283v-10.258h1.237V192.911z"/>
		<path fill="#3D614E" d="M126.304,200.11c-0.765,0.968-2.228,1.89-4.186,1.89c-2.88,0-5.153-2.16-5.153-5.354
			c0-2.947,2.003-5.354,4.906-5.354c2.745,0,4.77,2.16,4.77,5.017c0,0.089,0,0.248-0.022,0.45h-8.371
			c0.09,2.182,1.508,4.027,3.87,4.027c1.35,0,2.475-0.54,3.286-1.53L126.304,200.11z M118.316,195.589h6.998
			c-0.27-1.8-1.665-3.083-3.442-3.083C120.048,192.506,118.698,193.812,118.316,195.589z"/>
		<path fill="#3D614E" d="M130.353,192.956c0.833-1.102,2.183-1.665,3.623-1.665c1.485,0,2.812,0.608,3.645,1.732
			c0.562,0.743,0.878,1.597,0.878,3.285v5.466h-1.283v-5.376c0-1.35-0.225-2.001-0.585-2.519c-0.585-0.855-1.553-1.373-2.678-1.373
			c-1.485,0-2.768,0.788-3.555,2.137v7.131h-1.283v-10.258h1.238V192.956z"/>
		<path fill="#3D614E" d="M154,192.731h-6.278v-1.215h8.213v0.765l-6.863,8.279h7.088v1.214h-9v-0.764L154,192.731z"/>
		<path fill="#3D614E" d="M166.015,201.774v-1.507c-0.765,1.035-2.092,1.732-3.69,1.732c-0.967,0-2.047-0.248-3.06-0.968
			c-1.35-0.945-2.183-2.542-2.183-4.386c0-1.71,0.743-3.217,1.913-4.207c0.855-0.698,2.025-1.147,3.263-1.147
			c1.485,0,2.835,0.608,3.758,1.642v-1.417h1.238v10.258H166.015z M165.97,194.576c-0.451-0.765-1.8-2.07-3.69-2.07
			c-0.855,0-1.755,0.292-2.475,0.877c-0.9,0.743-1.44,1.935-1.44,3.262c0,1.417,0.63,2.677,1.62,3.375
			c0.653,0.45,1.44,0.765,2.318,0.765c1.508,0,2.858-0.855,3.668-2.25V194.576z"/>
		<path fill="#3D614E" d="M171.774,192.889c0.81-1.08,2.205-1.598,3.578-1.598c1.485,0,2.813,0.608,3.646,1.732
			c0.562,0.743,0.877,1.597,0.877,3.285v5.466h-1.283v-5.376c0-1.35-0.225-2.001-0.584-2.519c-0.585-0.855-1.553-1.373-2.678-1.373
			c-1.485,0-2.768,0.788-3.555,2.137v7.131h-1.283v-15.972h1.283V192.889z"/>
		<path fill="#3D614E" d="M182.979,185.803h1.283v15.972h-1.283V185.803z"/>
		<path fill="#3D614E" d="M196.119,200.11c-0.765,0.968-2.228,1.89-4.185,1.89c-2.88,0-5.153-2.16-5.153-5.354
			c0-2.947,2.003-5.354,4.905-5.354c2.746,0,4.771,2.16,4.771,5.017c0,0.089,0,0.248-0.022,0.45h-8.371
			c0.09,2.182,1.508,4.027,3.87,4.027c1.35,0,2.476-0.54,3.285-1.53L196.119,200.11z M188.131,195.589h6.998
			c-0.27-1.8-1.666-3.083-3.443-3.083C189.863,192.506,188.514,193.812,188.131,195.589z"/>
		<path fill="#3D614E" d="M200.167,192.956c0.833-1.102,2.183-1.665,3.623-1.665c1.485,0,2.813,0.608,3.646,1.732
			c0.562,0.743,0.877,1.597,0.877,3.285v5.466h-1.283v-5.376c0-1.35-0.225-2.001-0.584-2.519c-0.585-0.855-1.553-1.373-2.678-1.373
			c-1.485,0-2.768,0.788-3.555,2.137v7.131h-1.283v-10.258h1.237V192.956z"/>
	</g>
	<g>
		
			<rect x="118.137" y="-8.526" transform="matrix(0.7071 0.7071 -0.7071 0.7071 54.5993 -75.625)" fill="#3D614E" width="0.9" height="73.242"/>
	</g>
	<g>
		<polygon fill="#3D614E" points="142.036,2.169 144.485,2.203 144.519,4.652 146.689,0 		"/>
	</g>
	<g>
		
			<rect x="84.169" y="27.645" transform="matrix(0.7072 0.707 -0.707 0.7072 55.2323 -77.1753)" fill="#3D614E" width="73.243" height="0.899"/>
	</g>
	<g>
		<polygon fill="#3D614E" points="94.859,4.652 94.893,2.203 97.342,2.169 92.689,0 		"/>
	</g>
</g>
</svg>
