<?xml version="1.0" encoding="utf-8"?>
<!-- Generator: Adobe Illustrator 16.0.4, SVG Export Plug-In . SVG Version: 6.00 Build 0)  -->
<!DOCTYPE svg PUBLIC "-//W3C//DTD SVG 1.1//EN" "http://www.w3.org/Graphics/SVG/1.1/DTD/svg11.dtd">
<svg version="1.1" id="Ebene_1" xmlns="http://www.w3.org/2000/svg" xmlns:xlink="http://www.w3.org/1999/xlink" x="0px" y="0px"
	 width="59.998px" height="60px" viewBox="414.502 107.793 59.998 60" enable-background="new 414.502 107.793 59.998 60"
	 xml:space="preserve">
<g>
	<path fill="#FFFFFF" d="M472.795,133.575c-0.709-6.288-3.523-11.994-8.406-17.009c-11.395-11.697-29.939-11.699-41.34,0
		c-11.396,11.701-11.396,30.738,0,42.438c5.521,5.667,12.861,8.788,20.67,8.788s15.148-3.121,20.67-8.788l-1.197-1.229
		c-5.201,5.338-12.117,8.279-19.473,8.279c-7.354,0-14.271-2.941-19.473-8.279c-10.736-11.021-10.736-28.955,0-39.978
		c10.738-11.022,28.209-11.022,38.945,0c4.492,4.611,7.26,10.046,8.004,15.779h-1.547l2.396,6.624l2.455-6.594L472.795,133.575z"/>
</g>
<g>
	<path fill="#FFFFFF" d="M438.599,134.778v0.689h-2.413v7.761h-0.725v-7.761h-2.414v-0.689H438.599z"/>
	<path fill="#FFFFFF" d="M442.125,134.778l3.645,8.45h-0.724l-1.11-2.546h-4.104l-1.11,2.546h-0.724l3.645-8.45H442.125z
		 M440.121,139.993h3.513l-1.75-4.08L440.121,139.993z"/>
	<path fill="#FFFFFF" d="M452.725,138.906h-2.776v-0.687h3.5v3.56c-0.724,0.93-1.956,1.569-3.259,1.569
		c-2.523,0-4.346-1.847-4.346-4.346c0-2.438,1.799-4.345,4.236-4.345c1.208,0,2.33,0.482,3.066,1.291l-0.494,0.496
		c-0.592-0.652-1.521-1.1-2.572-1.1c-2.026,0-3.512,1.63-3.512,3.657c0,2.052,1.485,3.657,3.585,3.657
		c1.026,0,1.955-0.423,2.571-1.062V138.906z"/>
</g>
</svg>
