<?xml version="1.0" encoding="utf-8"?>
<!-- Generator: Adobe Illustrator 16.0.4, SVG Export Plug-In . SVG Version: 6.00 Build 0)  -->
<!DOCTYPE svg PUBLIC "-//W3C//DTD SVG 1.1//EN" "http://www.w3.org/Graphics/SVG/1.1/DTD/svg11.dtd">
<svg version="1.1" id="Ebene_1" xmlns="http://www.w3.org/2000/svg" xmlns:xlink="http://www.w3.org/1999/xlink" x="0px" y="0px"
	 width="59.998px" height="60px" viewBox="414.502 107.793 59.998 60" enable-background="new 414.502 107.793 59.998 60"
	 xml:space="preserve">
<g>
	<polygon fill="#FFFFFF" points="440.121,139.993 443.634,139.993 441.884,135.913 	"/>
	<path fill="#FFFFFF" d="M444.501,107.793c-16.568,0-30,13.432-30,30s13.432,30,30,30s30-13.432,30-30
		S461.069,107.793,444.501,107.793z M436.186,143.229h-0.725v-7.761h-2.414v-0.689h5.552v0.689h-2.413V143.229z M445.046,143.229
		l-1.11-2.546h-4.104l-1.11,2.546h-0.724l3.645-8.45h0.483l3.645,8.45H445.046z M453.448,141.779
		c-0.724,0.93-1.956,1.569-3.259,1.569c-2.523,0-4.346-1.847-4.346-4.346c0-2.438,1.799-4.345,4.236-4.345
		c1.208,0,2.33,0.482,3.066,1.291l-0.494,0.496c-0.592-0.652-1.521-1.1-2.572-1.1c-2.026,0-3.512,1.63-3.512,3.657
		c0,2.052,1.485,3.657,3.585,3.657c1.026,0,1.955-0.423,2.571-1.062v-2.692h-2.776v-0.687h3.5V141.779z"/>
</g>
</svg>
