<?xml version="1.0" encoding="utf-8"?>
<!-- Generator: Adobe Illustrator 16.0.4, SVG Export Plug-In . SVG Version: 6.00 Build 0)  -->
<!DOCTYPE svg PUBLIC "-//W3C//DTD SVG 1.1//EN" "http://www.w3.org/Graphics/SVG/1.1/DTD/svg11.dtd">
<svg version="1.1" id="Ebene_1" xmlns="http://www.w3.org/2000/svg" xmlns:xlink="http://www.w3.org/1999/xlink" x="0px" y="0px"
	 width="59.998px" height="60px" viewBox="414.502 107.793 59.998 60" enable-background="new 414.502 107.793 59.998 60"
	 xml:space="preserve">
<g>
	<path fill="#FFFFFF" d="M444.501,107.793c-16.568,0-30,13.432-30,30s13.432,30,30,30s30-13.432,30-30
		S461.069,107.793,444.501,107.793z M430.195,143.242h-0.469l-2.188-6.945l-2.186,6.945h-0.469l-2.703-8.455h0.717l2.209,6.994
		l2.197-6.994h0.471l2.197,6.994l2.209-6.994h0.717L430.195,143.242z M437.328,143.363c-2.324,0-4.088-1.885-4.088-4.348
		c0-2.465,1.764-4.35,4.088-4.35c2.326,0,4.09,1.885,4.09,4.35C441.418,141.479,439.654,143.363,437.328,143.363z M446.541,143.361
		c-2.453,0-4.229-1.848-4.229-4.348c0-2.439,1.75-4.349,4.123-4.349c1.176,0,2.268,0.483,2.984,1.292l-0.48,0.495
		c-0.576-0.652-1.48-1.099-2.504-1.099c-1.973,0-3.418,1.631-3.418,3.66c0,2.053,1.445,3.659,3.49,3.659
		c1.127,0,2.125-0.555,2.699-1.329l0.508,0.461C449.01,142.734,447.811,143.361,446.541,143.361z M457.539,143.242h-0.703v-4.324
		h-5.287v4.324h-0.705v-8.455h0.705v3.441h5.287v-3.441h0.703V143.242z M464.156,143.241h-4.582v-8.455h4.465v0.688h-3.76v2.754
		h2.938v0.688h-2.938v3.636h3.877V143.241z"/>
	<path fill="#FFFFFF" d="M437.328,135.354c-1.984,0-3.383,1.655-3.383,3.66c0,2.006,1.398,3.66,3.383,3.66s3.385-1.654,3.385-3.66
		C440.713,137.009,439.314,135.354,437.328,135.354z"/>
</g>
</svg>
