<?xml version="1.0" encoding="utf-8"?>
<!-- Generator: Adobe Illustrator 16.0.4, SVG Export Plug-In . SVG Version: 6.00 Build 0)  -->
<!DOCTYPE svg PUBLIC "-//W3C//DTD SVG 1.1//EN" "http://www.w3.org/Graphics/SVG/1.1/DTD/svg11.dtd">
<svg version="1.1" id="Ebene_1" xmlns="http://www.w3.org/2000/svg" xmlns:xlink="http://www.w3.org/1999/xlink" x="0px" y="0px"
	 width="59.998px" height="60px" viewBox="414.502 107.793 59.998 60" enable-background="new 414.502 107.793 59.998 60"
	 xml:space="preserve">
<g>
	<path fill="#FFFFFF" d="M472.795,133.575c-0.709-6.288-3.523-11.994-8.406-17.009c-11.395-11.697-29.939-11.699-41.34,0
		c-11.396,11.701-11.396,30.738,0,42.438c5.521,5.667,12.861,8.788,20.67,8.788s15.148-3.121,20.67-8.788l-1.197-1.229
		c-5.201,5.338-12.117,8.279-19.473,8.279c-7.354,0-14.271-2.941-19.473-8.279c-10.736-11.021-10.736-28.955,0-39.978
		c10.738-11.022,28.209-11.022,38.945,0c4.492,4.611,7.26,10.046,8.004,15.779h-1.547l2.396,6.624l2.455-6.594L472.795,133.575z"/>
</g>
<g>
	<path fill="#FFFFFF" d="M427.775,134.787l2.197,6.994l2.209-6.994h0.717l-2.703,8.455h-0.469l-2.188-6.945l-2.186,6.945h-0.469
		l-2.703-8.455h0.717l2.209,6.994l2.197-6.994H427.775z"/>
	<path fill="#FFFFFF" d="M437.328,134.666c2.326,0,4.09,1.885,4.09,4.35c0,2.463-1.764,4.348-4.09,4.348
		c-2.324,0-4.088-1.885-4.088-4.348C433.24,136.551,435.004,134.666,437.328,134.666z M437.328,142.674
		c1.984,0,3.385-1.654,3.385-3.66c0-2.005-1.398-3.66-3.385-3.66c-1.984,0-3.383,1.655-3.383,3.66
		C433.945,141.02,435.344,142.674,437.328,142.674z"/>
	<path fill="#FFFFFF" d="M449.715,141.805c-0.705,0.93-1.904,1.557-3.174,1.557c-2.453,0-4.229-1.848-4.229-4.348
		c0-2.439,1.75-4.349,4.123-4.349c1.176,0,2.268,0.483,2.984,1.292l-0.48,0.495c-0.576-0.652-1.48-1.099-2.504-1.099
		c-1.973,0-3.418,1.631-3.418,3.66c0,2.053,1.445,3.659,3.49,3.659c1.127,0,2.125-0.555,2.699-1.329L449.715,141.805z"/>
	<path fill="#FFFFFF" d="M456.836,138.918h-5.287v4.324h-0.705v-8.455h0.705v3.441h5.287v-3.441h0.703v8.455h-0.703V138.918z"/>
	<path fill="#FFFFFF" d="M460.279,135.475v2.754h2.938v0.688h-2.938v3.636h3.877v0.688h-4.582v-8.455h4.465v0.688H460.279
		L460.279,135.475z"/>
</g>
</svg>
