<?xml version="1.0" encoding="utf-8"?>
<!-- Generator: Adobe Illustrator 16.0.4, SVG Export Plug-In . SVG Version: 6.00 Build 0)  -->
<!DOCTYPE svg PUBLIC "-//W3C//DTD SVG 1.1//EN" "http://www.w3.org/Graphics/SVG/1.1/DTD/svg11.dtd">
<svg version="1.1" id="Ebene_1" xmlns="http://www.w3.org/2000/svg" xmlns:xlink="http://www.w3.org/1999/xlink" x="0px" y="0px"
	 width="40px" height="40px" viewBox="412.162 284.118 40 40" enable-background="new 412.162 284.118 40 40" xml:space="preserve">
<polygon fill="#FFFFFF" points="440.643,297.97 439.185,296.512 432.797,302.901 426.406,296.511 424.949,297.97 431.338,304.36 
	424.957,310.743 426.415,312.201 432.797,305.818 439.178,312.198 440.637,310.74 434.255,304.359 "/>
<g>
	<g>
		<path fill="#FFFFFF" d="M432.161,324.118c-11.028,0-20-8.971-20-20c0-11.027,8.972-20,20-20c11.029,0,20.001,8.972,20.001,20
			C452.162,315.147,443.19,324.118,432.161,324.118z M432.161,284.593c-10.766,0-19.525,8.759-19.525,19.525
			c0,10.767,8.759,19.525,19.525,19.525c10.767,0,19.526-8.759,19.526-19.525C451.688,293.352,442.928,284.593,432.161,284.593z"/>
	</g>
</g>
</svg>
